<mxfile host="app.diagrams.net" modified="2021-07-16T20:05:03.700Z" agent="5.0 (Windows NT 10.0; WOW64) AppleWebKit/537.36 (KHTML, like Gecko) Chrome/91.0.4472.124 Safari/537.36" etag="PvLkWp65KLEwUs20WoKg" version="14.9.0" type="github">
  <diagram id="r9fm61iHCpmHF8iYMMYb" name="Page-1">
    <mxGraphModel dx="1038" dy="521" grid="1" gridSize="10" guides="1" tooltips="1" connect="1" arrows="1" fold="1" page="1" pageScale="1" pageWidth="827" pageHeight="1169" math="0" shadow="0">
      <root>
        <mxCell id="0" />
        <mxCell id="1" parent="0" />
        <mxCell id="l-EFfzaBs1YA4GrgVFMN-33" value="" style="rounded=0;whiteSpace=wrap;html=1;" vertex="1" parent="1">
          <mxGeometry x="190" y="20" width="420" height="890" as="geometry" />
        </mxCell>
        <mxCell id="l-EFfzaBs1YA4GrgVFMN-1" value="Actor" style="shape=umlActor;verticalLabelPosition=bottom;verticalAlign=top;html=1;outlineConnect=0;" vertex="1" parent="1">
          <mxGeometry x="70" y="120" width="30" height="60" as="geometry" />
        </mxCell>
        <mxCell id="l-EFfzaBs1YA4GrgVFMN-2" value="Actor" style="shape=umlActor;verticalLabelPosition=bottom;verticalAlign=top;html=1;outlineConnect=0;" vertex="1" parent="1">
          <mxGeometry x="70" y="390" width="30" height="60" as="geometry" />
        </mxCell>
        <mxCell id="l-EFfzaBs1YA4GrgVFMN-3" value="ตรวจสอบยอดเงินรวมที่ขายสินค้าและแมวได้" style="ellipse;whiteSpace=wrap;html=1;" vertex="1" parent="1">
          <mxGeometry x="210" y="40" width="380" height="40" as="geometry" />
        </mxCell>
        <mxCell id="l-EFfzaBs1YA4GrgVFMN-5" value="เจ้าของกิจการ" style="rounded=0;whiteSpace=wrap;html=1;" vertex="1" parent="1">
          <mxGeometry x="52.5" y="190" width="65" height="30" as="geometry" />
        </mxCell>
        <mxCell id="l-EFfzaBs1YA4GrgVFMN-8" value="ตรวจสอบจพนวนสินค้าและแมวที่ขายได้" style="ellipse;whiteSpace=wrap;html=1;" vertex="1" parent="1">
          <mxGeometry x="211" y="100" width="379" height="40" as="geometry" />
        </mxCell>
        <mxCell id="l-EFfzaBs1YA4GrgVFMN-9" value="แก้ไข เพิ่มลบข้อมูลแมวและสินค้าได้" style="ellipse;whiteSpace=wrap;html=1;" vertex="1" parent="1">
          <mxGeometry x="211" y="160" width="384" height="40" as="geometry" />
        </mxCell>
        <mxCell id="l-EFfzaBs1YA4GrgVFMN-11" value="ตรวจสอบกำไลหรือขายทุนได้" style="ellipse;whiteSpace=wrap;html=1;" vertex="1" parent="1">
          <mxGeometry x="211" y="220" width="384" height="40" as="geometry" />
        </mxCell>
        <mxCell id="l-EFfzaBs1YA4GrgVFMN-13" value="กดยืนยันการรับออเดอร์สินค้าและแมวได้" style="ellipse;whiteSpace=wrap;html=1;" vertex="1" parent="1">
          <mxGeometry x="211" y="320" width="384" height="40" as="geometry" />
        </mxCell>
        <mxCell id="l-EFfzaBs1YA4GrgVFMN-14" value="กดยืนยันการชำระเงินของลูกค้า" style="ellipse;whiteSpace=wrap;html=1;" vertex="1" parent="1">
          <mxGeometry x="210" y="380" width="384" height="40" as="geometry" />
        </mxCell>
        <mxCell id="l-EFfzaBs1YA4GrgVFMN-15" value="อัปเดตสถานะการขนส่งของสินค้าได้" style="ellipse;whiteSpace=wrap;html=1;" vertex="1" parent="1">
          <mxGeometry x="211" y="440" width="384" height="40" as="geometry" />
        </mxCell>
        <mxCell id="l-EFfzaBs1YA4GrgVFMN-16" value="เติมสินค้าในระบบได้" style="ellipse;whiteSpace=wrap;html=1;" vertex="1" parent="1">
          <mxGeometry x="211" y="500" width="384" height="40" as="geometry" />
        </mxCell>
        <mxCell id="l-EFfzaBs1YA4GrgVFMN-17" value="แก้ไข,เพิ่มลบข้อมูลแมวและสินค้าได้" style="ellipse;whiteSpace=wrap;html=1;" vertex="1" parent="1">
          <mxGeometry x="211" y="560" width="384" height="40" as="geometry" />
        </mxCell>
        <mxCell id="l-EFfzaBs1YA4GrgVFMN-18" value="พนักงาน" style="rounded=0;whiteSpace=wrap;html=1;" vertex="1" parent="1">
          <mxGeometry x="52.5" y="460" width="65" height="30" as="geometry" />
        </mxCell>
        <mxCell id="l-EFfzaBs1YA4GrgVFMN-26" value="Actor" style="shape=umlActor;verticalLabelPosition=bottom;verticalAlign=top;html=1;outlineConnect=0;" vertex="1" parent="1">
          <mxGeometry x="70" y="700" width="30" height="60" as="geometry" />
        </mxCell>
        <mxCell id="l-EFfzaBs1YA4GrgVFMN-27" value="ซื้อสินค้าและแมวผ่านระบบได้" style="ellipse;whiteSpace=wrap;html=1;" vertex="1" parent="1">
          <mxGeometry x="211" y="650" width="384" height="40" as="geometry" />
        </mxCell>
        <mxCell id="l-EFfzaBs1YA4GrgVFMN-28" value="กดยกเลิกรายการสั่งออเดอร์ได้" style="ellipse;whiteSpace=wrap;html=1;" vertex="1" parent="1">
          <mxGeometry x="208" y="710" width="384" height="40" as="geometry" />
        </mxCell>
        <mxCell id="l-EFfzaBs1YA4GrgVFMN-29" value="อนุญาติให้ลูกค้าเลือกวิธรการชำระเงินได้(ชำระเงินปลายทาง,ผ่านแอพพลิเคชั่นของธนาคาร)" style="ellipse;whiteSpace=wrap;html=1;" vertex="1" parent="1">
          <mxGeometry x="210" y="770" width="385" height="40" as="geometry" />
        </mxCell>
        <mxCell id="l-EFfzaBs1YA4GrgVFMN-30" value="ติดตามสถานะสินค้าของลูกค้าผ่านระบบได้" style="ellipse;whiteSpace=wrap;html=1;" vertex="1" parent="1">
          <mxGeometry x="211" y="830" width="384" height="40" as="geometry" />
        </mxCell>
        <mxCell id="l-EFfzaBs1YA4GrgVFMN-34" value="ลูกค้า" style="rounded=0;whiteSpace=wrap;html=1;" vertex="1" parent="1">
          <mxGeometry x="52.5" y="770" width="65" height="30" as="geometry" />
        </mxCell>
      </root>
    </mxGraphModel>
  </diagram>
</mxfile>
